<svg width="4016" height="1057" viewBox="0 0 4016 1057" fill="none" xmlns="http://www.w3.org/2000/svg">
<path d="M613.333 504.485C533.249 365.985 399.666 293.374 314.823 342.218C289.386 356.806 271.334 380.736 260.503 410.731C193.548 358.117 120.028 340.088 66.2006 371.23C-18.6426 420.074 -22.4171 572.014 57.6671 710.515C137.751 849.015 271.334 921.626 356.177 872.782C381.614 858.194 399.666 834.264 410.497 804.269C477.452 856.883 550.972 874.912 604.799 843.77C689.643 794.926 693.417 642.986 613.333 504.485Z" fill="#FF79E0"/>
<path d="M1016.41 849.19C990.617 849.19 967.257 843.35 946.33 831.67C925.89 819.99 909.83 803.443 898.15 782.03C886.47 760.13 880.63 734.58 880.63 705.38V576.9L853.62 580.55C839.02 582.497 826.123 577.387 814.93 565.22C803.737 553.053 798.14 537.723 798.14 519.23C798.14 500.737 803.737 485.65 814.93 473.97C826.123 461.803 839.02 456.693 853.62 458.64L880.63 462.29L879.9 412.65C879.413 393.183 885.01 377.853 896.69 366.66C908.37 354.98 925.403 349.14 947.79 349.14C970.177 349.14 987.453 354.98 999.62 366.66C1011.79 377.853 1017.38 393.183 1016.41 412.65L1014.95 462.29L1053.64 457.18C1079.92 453.287 1099.87 458.153 1113.5 471.78C1127.13 484.92 1133.94 500.737 1133.94 519.23C1133.94 537.723 1127.13 553.783 1113.5 567.41C1100.36 580.55 1081.14 585.417 1055.83 582.01L1014.95 576.9V685.67C1014.95 691.997 1017.14 697.837 1021.52 703.19C1025.9 708.057 1031.25 709.517 1037.58 707.57C1044.88 705.623 1052.42 701.487 1060.21 695.16C1068.48 688.833 1078.95 685.67 1091.6 685.67C1110.58 685.67 1125.18 692.483 1135.4 706.11C1145.62 719.737 1150.73 736.527 1150.73 756.48C1150.73 772.053 1145.13 787.14 1133.94 801.74C1123.23 815.853 1107.9 827.29 1087.95 836.05C1068 844.81 1044.15 849.19 1016.41 849.19ZM1163.94 657.2C1163.94 618.753 1171.48 584.93 1186.57 555.73C1202.14 526.53 1224.04 503.657 1252.27 487.11C1280.98 470.563 1315.05 462.29 1354.47 462.29C1385.13 462.29 1412.63 467.887 1436.96 479.08C1461.78 490.273 1481.25 505.36 1495.36 524.34C1509.47 542.833 1516.53 563.273 1516.53 585.66C1516.53 609.02 1509.72 625.567 1496.09 635.3C1482.46 645.033 1462.27 649.9 1435.5 649.9H1282.2C1282.2 662.553 1287.07 673.017 1296.8 681.29C1307.02 689.563 1324.05 693.7 1347.9 693.7C1360.07 693.7 1371.26 692.483 1381.48 690.05C1392.19 687.617 1402.89 685.427 1413.6 683.48C1424.79 681.047 1437.2 679.83 1450.83 679.83C1470.3 679.83 1486.36 686.887 1499.01 701C1511.66 714.627 1517.99 733.607 1517.99 757.94C1517.99 786.653 1503.15 809.04 1473.46 825.1C1444.26 841.16 1405.81 849.19 1358.12 849.19C1324.54 849.19 1292.91 842.62 1263.22 829.48C1234.02 816.34 1210.17 795.657 1191.68 767.43C1173.19 738.717 1163.94 701.973 1163.94 657.2ZM1400.46 625.81C1407.76 625.81 1410.19 622.403 1407.76 615.59C1405.81 608.777 1399.97 601.72 1390.24 594.42C1380.51 587.12 1366.39 583.47 1347.9 583.47C1326.49 583.47 1310.43 588.093 1299.72 597.34C1289.5 606.587 1284.39 616.077 1284.39 625.81H1400.46ZM1735.07 856.49C1701.49 856.49 1670.34 853.327 1641.63 847C1613.4 840.187 1590.77 829.723 1573.74 815.61C1556.7 801.01 1548.19 781.787 1548.19 757.94C1548.19 737.013 1554.51 719.737 1567.17 706.11C1579.82 692.483 1596.61 685.67 1617.54 685.67C1630.68 685.67 1643.82 687.86 1656.96 692.24C1670.58 696.133 1684.94 700.027 1700.03 703.92C1715.11 707.813 1731.42 709.76 1748.94 709.76C1764.51 709.76 1774.97 709.03 1780.33 707.57C1785.68 705.623 1788.36 702.217 1788.36 697.35C1788.36 691.51 1784.95 687.617 1778.14 685.67C1771.81 683.723 1760.86 681.29 1745.29 678.37L1692.73 668.15C1670.83 663.77 1649.41 658.173 1628.49 651.36C1608.05 644.06 1591.01 633.353 1577.39 619.24C1564.25 605.127 1557.68 585.903 1557.68 561.57C1557.68 528.477 1572.28 502.683 1601.48 484.19C1631.16 465.697 1673.99 456.45 1729.96 456.45C1762.08 456.45 1790.79 459.613 1816.1 465.94C1841.89 472.267 1862.33 481.757 1877.42 494.41C1892.5 506.577 1900.05 521.907 1900.05 540.4C1900.53 560.353 1895.18 576.413 1883.99 588.58C1872.79 600.747 1858.68 606.83 1841.65 606.83C1829.48 606.83 1817.07 605.37 1804.42 602.45C1792.25 599.043 1778.87 595.637 1764.27 592.23C1750.15 588.337 1733.85 586.147 1715.36 585.66C1702.22 584.687 1691.51 585.417 1683.24 587.85C1674.96 590.283 1670.83 594.177 1670.83 599.53C1670.83 605.37 1675.69 609.507 1685.43 611.94C1695.16 613.887 1709.76 616.563 1729.23 619.97L1781.06 629.46C1812.69 634.813 1837.75 641.627 1856.25 649.9C1875.23 657.687 1888.85 668.637 1897.13 682.75C1905.4 696.863 1909.54 716.33 1909.54 741.15C1909.54 766.943 1901.99 788.6 1886.91 806.12C1872.31 823.153 1851.87 835.807 1825.59 844.08C1799.31 852.353 1769.13 856.49 1735.07 856.49ZM2134.94 849.19C2109.14 849.19 2085.78 843.35 2064.86 831.67C2044.42 819.99 2028.36 803.443 2016.68 782.03C2005 760.13 1999.16 734.58 1999.16 705.38V576.9L1972.15 580.55C1957.55 582.497 1944.65 577.387 1933.46 565.22C1922.26 553.053 1916.67 537.723 1916.67 519.23C1916.67 500.737 1922.26 485.65 1933.46 473.97C1944.65 461.803 1957.55 456.693 1972.15 458.64L1999.16 462.29L1998.43 412.65C1997.94 393.183 2003.54 377.853 2015.22 366.66C2026.9 354.98 2043.93 349.14 2066.32 349.14C2088.7 349.14 2105.98 354.98 2118.15 366.66C2130.31 377.853 2135.91 393.183 2134.94 412.65L2133.48 462.29L2172.17 457.18C2198.45 453.287 2218.4 458.153 2232.03 471.78C2245.65 484.92 2252.47 500.737 2252.47 519.23C2252.47 537.723 2245.65 553.783 2232.03 567.41C2218.89 580.55 2199.66 585.417 2174.36 582.01L2133.48 576.9V685.67C2133.48 691.997 2135.67 697.837 2140.05 703.19C2144.43 708.057 2149.78 709.517 2156.11 707.57C2163.41 705.623 2170.95 701.487 2178.74 695.16C2187.01 688.833 2197.47 685.67 2210.13 685.67C2229.11 685.67 2243.71 692.483 2253.93 706.11C2264.15 719.737 2269.26 736.527 2269.26 756.48C2269.26 772.053 2263.66 787.14 2252.47 801.74C2241.76 815.853 2226.43 827.29 2206.48 836.05C2186.52 844.81 2162.68 849.19 2134.94 849.19ZM2644.65 849.19C2618.86 849.19 2595.5 843.35 2574.57 831.67C2554.13 819.99 2538.07 803.443 2526.39 782.03C2514.71 760.13 2508.87 734.58 2508.87 705.38V576.9L2481.86 580.55C2467.26 582.497 2454.37 577.387 2443.17 565.22C2431.98 553.053 2426.38 537.723 2426.38 519.23C2426.38 500.737 2431.98 485.65 2443.17 473.97C2454.37 461.803 2467.26 456.693 2481.86 458.64L2508.87 462.29L2508.14 412.65C2507.66 393.183 2513.25 377.853 2524.93 366.66C2536.61 354.98 2553.65 349.14 2576.03 349.14C2598.42 349.14 2615.7 354.98 2627.86 366.66C2640.03 377.853 2645.63 393.183 2644.65 412.65L2643.19 462.29L2681.88 457.18C2708.16 453.287 2728.12 458.153 2741.74 471.78C2755.37 484.92 2762.18 500.737 2762.18 519.23C2762.18 537.723 2755.37 553.783 2741.74 567.41C2728.6 580.55 2709.38 585.417 2684.07 582.01L2643.19 576.9V685.67C2643.19 691.997 2645.38 697.837 2649.76 703.19C2654.14 708.057 2659.5 709.517 2665.82 707.57C2673.12 705.623 2680.67 701.487 2688.45 695.16C2696.73 688.833 2707.19 685.67 2719.84 685.67C2738.82 685.67 2753.42 692.483 2763.64 706.11C2773.86 719.737 2778.97 736.527 2778.97 756.48C2778.97 772.053 2773.38 787.14 2762.18 801.74C2751.48 815.853 2736.15 827.29 2716.19 836.05C2696.24 844.81 2672.39 849.19 2644.65 849.19ZM2919.54 847C2883.52 847 2855.3 837.267 2834.86 817.8C2814.9 798.333 2804.93 771.08 2804.93 736.04C2804.93 701 2816.61 675.693 2839.97 660.12C2863.33 644.06 2893.26 636.03 2929.76 636.03C2951.17 636.03 2970.64 637.49 2988.16 640.41C3005.68 643.33 3021.49 647.467 3035.61 652.82H3037.8V641.87C3037.8 630.677 3033.66 621.917 3025.39 615.59C3017.11 608.777 3006.65 605.613 2994 606.1C2981.83 606.1 2971.37 606.83 2962.61 608.29C2954.33 609.75 2943.87 612.183 2931.22 615.59C2907.86 621.43 2887.66 620.943 2870.63 614.13C2853.59 607.317 2841.91 593.933 2835.59 573.98C2829.75 553.053 2830.96 535.533 2839.24 521.42C2848 507.307 2861.14 496.357 2878.66 488.57C2893.74 481.27 2910.53 475.187 2929.03 470.32C2948.01 465.453 2968.45 463.02 2990.35 463.02C3054.1 463.02 3100.82 478.593 3130.51 509.74C3160.68 540.4 3175.77 591.987 3175.77 664.5V777.65C3175.77 797.603 3169.68 814.15 3157.52 827.29C3145.35 840.43 3128.56 847 3107.15 847C3083.79 847 3066.27 840.43 3054.59 827.29C3043.39 814.15 3037.8 798.09 3037.8 779.11V762.32H3023.2C3023.2 774.973 3020.76 787.87 3015.9 801.01C3011.52 814.15 3002.03 825.1 2987.43 833.86C2973.31 842.62 2950.68 847 2919.54 847ZM2926.84 687.13C2926.84 695.403 2929.76 701.243 2935.6 704.65C2941.92 708.057 2955.31 709.76 2975.75 709.76C2994.24 709.76 3007.14 708.057 3014.44 704.65C3021.74 701.243 3025.39 695.403 3025.39 687.13C3025.39 679.343 3021.74 673.99 3014.44 671.07C3007.14 667.663 2994.24 665.96 2975.75 665.96C2955.31 665.96 2941.92 667.663 2935.6 671.07C2929.76 673.99 2926.84 679.343 2926.84 687.13ZM3390.4 856.49C3356.82 856.49 3325.67 853.327 3296.96 847C3268.73 840.187 3246.1 829.723 3229.07 815.61C3212.04 801.01 3203.52 781.787 3203.52 757.94C3203.52 737.013 3209.85 719.737 3222.5 706.11C3235.15 692.483 3251.94 685.67 3272.87 685.67C3286.01 685.67 3299.15 687.86 3312.29 692.24C3325.92 696.133 3340.27 700.027 3355.36 703.92C3370.45 707.813 3386.75 709.76 3404.27 709.76C3419.84 709.76 3430.31 709.03 3435.66 707.57C3441.01 705.623 3443.69 702.217 3443.69 697.35C3443.69 691.51 3440.28 687.617 3433.47 685.67C3427.14 683.723 3416.19 681.29 3400.62 678.37L3348.06 668.15C3326.16 663.77 3304.75 658.173 3283.82 651.36C3263.38 644.06 3246.35 633.353 3232.72 619.24C3219.58 605.127 3213.01 585.903 3213.01 561.57C3213.01 528.477 3227.61 502.683 3256.81 484.19C3286.5 465.697 3329.32 456.45 3385.29 456.45C3417.41 456.45 3446.12 459.613 3471.43 465.94C3497.22 472.267 3517.66 481.757 3532.75 494.41C3547.84 506.577 3555.38 521.907 3555.38 540.4C3555.87 560.353 3550.51 576.413 3539.32 588.58C3528.13 600.747 3514.01 606.83 3496.98 606.83C3484.81 606.83 3472.4 605.37 3459.75 602.45C3447.58 599.043 3434.2 595.637 3419.6 592.23C3405.49 588.337 3389.18 586.147 3370.69 585.66C3357.55 584.687 3346.84 585.417 3338.57 587.85C3330.3 590.283 3326.16 594.177 3326.16 599.53C3326.16 605.37 3331.03 609.507 3340.76 611.94C3350.49 613.887 3365.09 616.563 3384.56 619.97L3436.39 629.46C3468.02 634.813 3493.09 641.627 3511.58 649.9C3530.56 657.687 3544.19 668.637 3552.46 682.75C3560.73 696.863 3564.87 716.33 3564.87 741.15C3564.87 766.943 3557.33 788.6 3542.24 806.12C3527.64 823.153 3507.2 835.807 3480.92 844.08C3454.64 852.353 3424.47 856.49 3390.4 856.49ZM3670.75 847C3649.33 847 3632.3 840.673 3619.65 828.02C3606.99 814.88 3600.67 798.82 3600.67 779.84V357.17C3600.67 336.73 3606.75 319.453 3618.92 305.34C3631.57 291.227 3649.33 284.17 3672.21 284.17C3694.59 284.17 3711.38 291.227 3722.58 305.34C3734.26 319.453 3740.1 336.973 3740.1 357.9V579.09L3742.29 579.82C3744.72 559.38 3751.05 540.643 3761.27 523.61C3771.49 506.09 3785.84 491.977 3804.34 481.27C3822.83 470.563 3845.46 465.21 3872.23 465.21C3908.24 465.21 3937.2 475.187 3959.1 495.14C3981 515.093 3991.95 542.347 3991.95 576.9C3991.95 600.747 3987.08 619.727 3977.35 633.84C3968.1 647.467 3955.45 656.957 3939.39 662.31C3923.33 667.663 3905.56 670.097 3886.1 669.61V682.02C3929.41 682.02 3960.07 690.78 3978.08 708.3C3996.57 725.333 4005.82 746.99 4005.82 773.27C4005.82 797.603 3998.52 816.34 3983.92 829.48C3969.32 842.62 3951.8 848.947 3931.36 848.46C3908.97 847.973 3890.48 841.403 3875.88 828.75C3861.28 816.097 3849.11 799.063 3839.38 777.65L3807.99 711.22C3801.66 698.08 3793.39 688.59 3783.17 682.75C3773.43 676.91 3759.08 674.72 3740.1 676.18V779.84C3740.1 798.82 3733.77 814.88 3721.12 828.02C3708.95 840.673 3692.16 847 3670.75 847ZM3755.43 626.54C3755.43 633.353 3758.83 638.463 3765.65 641.87C3772.95 644.79 3787.79 646.25 3810.18 646.25C3832.08 646.25 3846.68 644.79 3853.98 641.87C3861.28 638.95 3864.93 633.84 3864.93 626.54C3864.93 619.727 3861.28 614.617 3853.98 611.21C3846.68 607.803 3832.32 606.1 3810.91 606.1C3788.03 606.1 3772.95 607.803 3765.65 611.21C3758.83 614.617 3755.43 619.727 3755.43 626.54Z" fill="white"/>
</svg>
