<svg width="3924" height="1057" viewBox="0 0 3924 1057" fill="none" xmlns="http://www.w3.org/2000/svg">
<path d="M613.333 509.485C533.249 370.985 399.666 298.374 314.823 347.218C289.386 361.806 271.334 385.736 260.503 415.731C193.548 363.117 120.028 345.088 66.2006 376.23C-18.6426 425.074 -22.4171 577.014 57.6671 715.515C137.751 854.015 271.334 926.626 356.177 877.782C381.614 863.194 399.666 839.264 410.497 809.269C477.452 861.883 550.972 879.912 604.799 848.77C689.643 799.926 693.417 647.986 613.333 509.485Z" fill="#02F1E6"/>
<path d="M924.41 849.19C898.617 849.19 875.257 843.35 854.33 831.67C833.89 819.99 817.83 803.443 806.15 782.03C794.47 760.13 788.63 734.58 788.63 705.38V576.9L761.62 580.55C747.02 582.497 734.123 577.387 722.93 565.22C711.737 553.053 706.14 537.723 706.14 519.23C706.14 500.737 711.737 485.65 722.93 473.97C734.123 461.803 747.02 456.693 761.62 458.64L788.63 462.29L787.9 412.65C787.413 393.183 793.01 377.853 804.69 366.66C816.37 354.98 833.403 349.14 855.79 349.14C878.177 349.14 895.453 354.98 907.62 366.66C919.787 377.853 925.383 393.183 924.41 412.65L922.95 462.29L961.64 457.18C987.92 453.287 1007.87 458.153 1021.5 471.78C1035.13 484.92 1041.94 500.737 1041.94 519.23C1041.94 537.723 1035.13 553.783 1021.5 567.41C1008.36 580.55 989.137 585.417 963.83 582.01L922.95 576.9V685.67C922.95 691.997 925.14 697.837 929.52 703.19C933.9 708.057 939.253 709.517 945.58 707.57C952.88 705.623 960.423 701.487 968.21 695.16C976.483 688.833 986.947 685.67 999.6 685.67C1018.58 685.67 1033.18 692.483 1043.4 706.11C1053.62 719.737 1058.73 736.527 1058.73 756.48C1058.73 772.053 1053.13 787.14 1041.94 801.74C1031.23 815.853 1015.9 827.29 995.95 836.05C975.997 844.81 952.15 849.19 924.41 849.19ZM1071.94 657.2C1071.94 618.753 1079.48 584.93 1094.57 555.73C1110.14 526.53 1132.04 503.657 1160.27 487.11C1188.98 470.563 1223.05 462.29 1262.47 462.29C1293.13 462.29 1320.63 467.887 1344.96 479.08C1369.78 490.273 1389.25 505.36 1403.36 524.34C1417.47 542.833 1424.53 563.273 1424.53 585.66C1424.53 609.02 1417.72 625.567 1404.09 635.3C1390.46 645.033 1370.27 649.9 1343.5 649.9H1190.2C1190.2 662.553 1195.07 673.017 1204.8 681.29C1215.02 689.563 1232.05 693.7 1255.9 693.7C1268.07 693.7 1279.26 692.483 1289.48 690.05C1300.19 687.617 1310.89 685.427 1321.6 683.48C1332.79 681.047 1345.2 679.83 1358.83 679.83C1378.3 679.83 1394.36 686.887 1407.01 701C1419.66 714.627 1425.99 733.607 1425.99 757.94C1425.99 786.653 1411.15 809.04 1381.46 825.1C1352.26 841.16 1313.81 849.19 1266.12 849.19C1232.54 849.19 1200.91 842.62 1171.22 829.48C1142.02 816.34 1118.17 795.657 1099.68 767.43C1081.19 738.717 1071.94 701.973 1071.94 657.2ZM1308.46 625.81C1315.76 625.81 1318.19 622.403 1315.76 615.59C1313.81 608.777 1307.97 601.72 1298.24 594.42C1288.51 587.12 1274.39 583.47 1255.9 583.47C1234.49 583.47 1218.43 588.093 1207.72 597.34C1197.5 606.587 1192.39 616.077 1192.39 625.81H1308.46ZM1643.07 856.49C1609.49 856.49 1578.34 853.327 1549.63 847C1521.4 840.187 1498.77 829.723 1481.74 815.61C1464.7 801.01 1456.19 781.787 1456.19 757.94C1456.19 737.013 1462.51 719.737 1475.17 706.11C1487.82 692.483 1504.61 685.67 1525.54 685.67C1538.68 685.67 1551.82 687.86 1564.96 692.24C1578.58 696.133 1592.94 700.027 1608.03 703.92C1623.11 707.813 1639.42 709.76 1656.94 709.76C1672.51 709.76 1682.97 709.03 1688.33 707.57C1693.68 705.623 1696.36 702.217 1696.36 697.35C1696.36 691.51 1692.95 687.617 1686.14 685.67C1679.81 683.723 1668.86 681.29 1653.29 678.37L1600.73 668.15C1578.83 663.77 1557.41 658.173 1536.49 651.36C1516.05 644.06 1499.01 633.353 1485.39 619.24C1472.25 605.127 1465.68 585.903 1465.68 561.57C1465.68 528.477 1480.28 502.683 1509.48 484.19C1539.16 465.697 1581.99 456.45 1637.96 456.45C1670.08 456.45 1698.79 459.613 1724.1 465.94C1749.89 472.267 1770.33 481.757 1785.42 494.41C1800.5 506.577 1808.05 521.907 1808.05 540.4C1808.53 560.353 1803.18 576.413 1791.99 588.58C1780.79 600.747 1766.68 606.83 1749.65 606.83C1737.48 606.83 1725.07 605.37 1712.42 602.45C1700.25 599.043 1686.87 595.637 1672.27 592.23C1658.15 588.337 1641.85 586.147 1623.36 585.66C1610.22 584.687 1599.51 585.417 1591.24 587.85C1582.96 590.283 1578.83 594.177 1578.83 599.53C1578.83 605.37 1583.69 609.507 1593.43 611.94C1603.16 613.887 1617.76 616.563 1637.23 619.97L1689.06 629.46C1720.69 634.813 1745.75 641.627 1764.25 649.9C1783.23 657.687 1796.85 668.637 1805.13 682.75C1813.4 696.863 1817.54 716.33 1817.54 741.15C1817.54 766.943 1809.99 788.6 1794.91 806.12C1780.31 823.153 1759.87 835.807 1733.59 844.08C1707.31 852.353 1677.13 856.49 1643.07 856.49ZM2042.94 849.19C2017.14 849.19 1993.78 843.35 1972.86 831.67C1952.42 819.99 1936.36 803.443 1924.68 782.03C1913 760.13 1907.16 734.58 1907.16 705.38V576.9L1880.15 580.55C1865.55 582.497 1852.65 577.387 1841.46 565.22C1830.26 553.053 1824.67 537.723 1824.67 519.23C1824.67 500.737 1830.26 485.65 1841.46 473.97C1852.65 461.803 1865.55 456.693 1880.15 458.64L1907.16 462.29L1906.43 412.65C1905.94 393.183 1911.54 377.853 1923.22 366.66C1934.9 354.98 1951.93 349.14 1974.32 349.14C1996.7 349.14 2013.98 354.98 2026.15 366.66C2038.31 377.853 2043.91 393.183 2042.94 412.65L2041.48 462.29L2080.17 457.18C2106.45 453.287 2126.4 458.153 2140.03 471.78C2153.65 484.92 2160.47 500.737 2160.47 519.23C2160.47 537.723 2153.65 553.783 2140.03 567.41C2126.89 580.55 2107.66 585.417 2082.36 582.01L2041.48 576.9V685.67C2041.48 691.997 2043.67 697.837 2048.05 703.19C2052.43 708.057 2057.78 709.517 2064.11 707.57C2071.41 705.623 2078.95 701.487 2086.74 695.16C2095.01 688.833 2105.47 685.67 2118.13 685.67C2137.11 685.67 2151.71 692.483 2161.93 706.11C2172.15 719.737 2177.26 736.527 2177.26 756.48C2177.26 772.053 2171.66 787.14 2160.47 801.74C2149.76 815.853 2134.43 827.29 2114.48 836.05C2094.52 844.81 2070.68 849.19 2042.94 849.19ZM2552.65 849.19C2526.86 849.19 2503.5 843.35 2482.57 831.67C2462.13 819.99 2446.07 803.443 2434.39 782.03C2422.71 760.13 2416.87 734.58 2416.87 705.38V576.9L2389.86 580.55C2375.26 582.497 2362.37 577.387 2351.17 565.22C2339.98 553.053 2334.38 537.723 2334.38 519.23C2334.38 500.737 2339.98 485.65 2351.17 473.97C2362.37 461.803 2375.26 456.693 2389.86 458.64L2416.87 462.29L2416.14 412.65C2415.66 393.183 2421.25 377.853 2432.93 366.66C2444.61 354.98 2461.65 349.14 2484.03 349.14C2506.42 349.14 2523.7 354.98 2535.86 366.66C2548.03 377.853 2553.63 393.183 2552.65 412.65L2551.19 462.29L2589.88 457.18C2616.16 453.287 2636.12 458.153 2649.74 471.78C2663.37 484.92 2670.18 500.737 2670.18 519.23C2670.18 537.723 2663.37 553.783 2649.74 567.41C2636.6 580.55 2617.38 585.417 2592.07 582.01L2551.19 576.9V685.67C2551.19 691.997 2553.38 697.837 2557.76 703.19C2562.14 708.057 2567.5 709.517 2573.82 707.57C2581.12 705.623 2588.67 701.487 2596.45 695.16C2604.73 688.833 2615.19 685.67 2627.84 685.67C2646.82 685.67 2661.42 692.483 2671.64 706.11C2681.86 719.737 2686.97 736.527 2686.97 756.48C2686.97 772.053 2681.38 787.14 2670.18 801.74C2659.48 815.853 2644.15 827.29 2624.19 836.05C2604.24 844.81 2580.39 849.19 2552.65 849.19ZM2827.54 847C2791.52 847 2763.3 837.267 2742.86 817.8C2722.9 798.333 2712.93 771.08 2712.93 736.04C2712.93 701 2724.61 675.693 2747.97 660.12C2771.33 644.06 2801.26 636.03 2837.76 636.03C2859.17 636.03 2878.64 637.49 2896.16 640.41C2913.68 643.33 2929.49 647.467 2943.61 652.82H2945.8V641.87C2945.8 630.677 2941.66 621.917 2933.39 615.59C2925.11 608.777 2914.65 605.613 2902 606.1C2889.83 606.1 2879.37 606.83 2870.61 608.29C2862.33 609.75 2851.87 612.183 2839.22 615.59C2815.86 621.43 2795.66 620.943 2778.63 614.13C2761.59 607.317 2749.91 593.933 2743.59 573.98C2737.75 553.053 2738.96 535.533 2747.24 521.42C2756 507.307 2769.14 496.357 2786.66 488.57C2801.74 481.27 2818.53 475.187 2837.03 470.32C2856.01 465.453 2876.45 463.02 2898.35 463.02C2962.1 463.02 3008.82 478.593 3038.51 509.74C3068.68 540.4 3083.77 591.987 3083.77 664.5V777.65C3083.77 797.603 3077.68 814.15 3065.52 827.29C3053.35 840.43 3036.56 847 3015.15 847C2991.79 847 2974.27 840.43 2962.59 827.29C2951.39 814.15 2945.8 798.09 2945.8 779.11V762.32H2931.2C2931.2 774.973 2928.76 787.87 2923.9 801.01C2919.52 814.15 2910.03 825.1 2895.43 833.86C2881.31 842.62 2858.68 847 2827.54 847ZM2834.84 687.13C2834.84 695.403 2837.76 701.243 2843.6 704.65C2849.92 708.057 2863.31 709.76 2883.75 709.76C2902.24 709.76 2915.14 708.057 2922.44 704.65C2929.74 701.243 2933.39 695.403 2933.39 687.13C2933.39 679.343 2929.74 673.99 2922.44 671.07C2915.14 667.663 2902.24 665.96 2883.75 665.96C2863.31 665.96 2849.92 667.663 2843.6 671.07C2837.76 673.99 2834.84 679.343 2834.84 687.13ZM3298.4 856.49C3264.82 856.49 3233.67 853.327 3204.96 847C3176.73 840.187 3154.1 829.723 3137.07 815.61C3120.04 801.01 3111.52 781.787 3111.52 757.94C3111.52 737.013 3117.85 719.737 3130.5 706.11C3143.15 692.483 3159.94 685.67 3180.87 685.67C3194.01 685.67 3207.15 687.86 3220.29 692.24C3233.92 696.133 3248.27 700.027 3263.36 703.92C3278.45 707.813 3294.75 709.76 3312.27 709.76C3327.84 709.76 3338.31 709.03 3343.66 707.57C3349.01 705.623 3351.69 702.217 3351.69 697.35C3351.69 691.51 3348.28 687.617 3341.47 685.67C3335.14 683.723 3324.19 681.29 3308.62 678.37L3256.06 668.15C3234.16 663.77 3212.75 658.173 3191.82 651.36C3171.38 644.06 3154.35 633.353 3140.72 619.24C3127.58 605.127 3121.01 585.903 3121.01 561.57C3121.01 528.477 3135.61 502.683 3164.81 484.19C3194.5 465.697 3237.32 456.45 3293.29 456.45C3325.41 456.45 3354.12 459.613 3379.43 465.94C3405.22 472.267 3425.66 481.757 3440.75 494.41C3455.84 506.577 3463.38 521.907 3463.38 540.4C3463.87 560.353 3458.51 576.413 3447.32 588.58C3436.13 600.747 3422.01 606.83 3404.98 606.83C3392.81 606.83 3380.4 605.37 3367.75 602.45C3355.58 599.043 3342.2 595.637 3327.6 592.23C3313.49 588.337 3297.18 586.147 3278.69 585.66C3265.55 584.687 3254.84 585.417 3246.57 587.85C3238.3 590.283 3234.16 594.177 3234.16 599.53C3234.16 605.37 3239.03 609.507 3248.76 611.94C3258.49 613.887 3273.09 616.563 3292.56 619.97L3344.39 629.46C3376.02 634.813 3401.09 641.627 3419.58 649.9C3438.56 657.687 3452.19 668.637 3460.46 682.75C3468.73 696.863 3472.87 716.33 3472.87 741.15C3472.87 766.943 3465.33 788.6 3450.24 806.12C3435.64 823.153 3415.2 835.807 3388.92 844.08C3362.64 852.353 3332.47 856.49 3298.4 856.49ZM3578.75 847C3557.33 847 3540.3 840.673 3527.65 828.02C3514.99 814.88 3508.67 798.82 3508.67 779.84V357.17C3508.67 336.73 3514.75 319.453 3526.92 305.34C3539.57 291.227 3557.33 284.17 3580.21 284.17C3602.59 284.17 3619.38 291.227 3630.58 305.34C3642.26 319.453 3648.1 336.973 3648.1 357.9V579.09L3650.29 579.82C3652.72 559.38 3659.05 540.643 3669.27 523.61C3679.49 506.09 3693.84 491.977 3712.34 481.27C3730.83 470.563 3753.46 465.21 3780.23 465.21C3816.24 465.21 3845.2 475.187 3867.1 495.14C3889 515.093 3899.95 542.347 3899.95 576.9C3899.95 600.747 3895.08 619.727 3885.35 633.84C3876.1 647.467 3863.45 656.957 3847.39 662.31C3831.33 667.663 3813.56 670.097 3794.1 669.61V682.02C3837.41 682.02 3868.07 690.78 3886.08 708.3C3904.57 725.333 3913.82 746.99 3913.82 773.27C3913.82 797.603 3906.52 816.34 3891.92 829.48C3877.32 842.62 3859.8 848.947 3839.36 848.46C3816.97 847.973 3798.48 841.403 3783.88 828.75C3769.28 816.097 3757.11 799.063 3747.38 777.65L3715.99 711.22C3709.66 698.08 3701.39 688.59 3691.17 682.75C3681.43 676.91 3667.08 674.72 3648.1 676.18V779.84C3648.1 798.82 3641.77 814.88 3629.12 828.02C3616.95 840.673 3600.16 847 3578.75 847ZM3663.43 626.54C3663.43 633.353 3666.83 638.463 3673.65 641.87C3680.95 644.79 3695.79 646.25 3718.18 646.25C3740.08 646.25 3754.68 644.79 3761.98 641.87C3769.28 638.95 3772.93 633.84 3772.93 626.54C3772.93 619.727 3769.28 614.617 3761.98 611.21C3754.68 607.803 3740.32 606.1 3718.91 606.1C3696.03 606.1 3680.95 607.803 3673.65 611.21C3666.83 614.617 3663.43 619.727 3663.43 626.54Z" fill="white"/>
</svg>
